# xmcd
#
# Track frame offsets: 
#        150
#        14976
#        32656
#        52273
#        62635
#        76627
#        93114
#        115886
#        131527
#        146737
#        162647
#        177089
#        191137
#        206110
#        225444
#
# Disc length: 3173 seconds
#
# Revision: 0
# Processed by: cddbd v1.5.2PL0 Copyright (c) Steve Scherf et al.
# Submitted via: ExactAudioCopy v1.0b3
#
DISCID=d30c630f
DTITLE=Adrian Jimenez - Rock In Blues
DYEAR=2012
DGENRE=Blues
TTITLE0=Shake The Boogie
TTITLE1=A. J. Shuffle
TTITLE2=Walking Thru The Park
TTITLE3=Careless Love
TTITLE4=Hard Rockin'
TTITLE5=I'm Leaving You
TTITLE6=Stop Breakin' Down
TTITLE7=Juker
TTITLE8=Xime Blues
TTITLE9=Sleeping In The Ground
TTITLE10=Crazy Mixed Up World
TTITLE11=Don't Need No Horse
TTITLE12=Mean Old Train
TTITLE13=Diamond At Her Feet
TTITLE14=The New Honeydripper
EXTD=
EXTT0=
EXTT1=
EXTT2=
EXTT3=
EXTT4=
EXTT5=
EXTT6=
EXTT7=
EXTT8=
EXTT9=
EXTT10=
EXTT11=
EXTT12=
EXTT13=
EXTT14=
PLAYORDER=
